<?xml version="1.0" standalone="no"?>
<!DOCTYPE svg PUBLIC "-//W3C//DTD SVG 20010904//EN"
 "http://www.w3.org/TR/2001/REC-SVG-20010904/DTD/svg10.dtd">
<svg version="1.0" xmlns="http://www.w3.org/2000/svg"
 width="300.000000pt" height="57.000000pt" viewBox="0 0 300.000000 57.000000"
 preserveAspectRatio="xMidYMid meet">
<metadata>
Created by potrace 1.10, written by Peter Selinger 2001-2011
</metadata>
<g transform="translate(0.000000,57.000000) scale(0.100000,-0.100000)"
fill="#000000" stroke="none">
<path d="M13 505 c0 -38 2 -53 4 -32 2 20 2 52 0 70 -2 17 -4 1 -4 -38z"/>
<path d="M203 515 c0 -33 2 -45 4 -27 2 18 2 45 0 60 -2 15 -4 0 -4 -33z"/>
<path d="M393 515 c0 -33 2 -45 4 -27 2 18 2 45 0 60 -2 15 -4 0 -4 -33z"/>
<path d="M1163 515 c0 -33 2 -45 4 -27 2 18 2 45 0 60 -2 15 -4 0 -4 -33z"/>
<path d="M1353 510 c0 -36 2 -50 4 -32 2 17 2 47 0 65 -2 17 -4 3 -4 -33z"/>
<path d="M1540 491 l0 -80 -42 -4 -43 -4 42 -1 42 -2 4 -102 c1 -62 4 -28 5
85 1 103 0 187 -3 187 -3 0 -5 -36 -5 -79z"/>
<path d="M1733 500 c0 -41 2 -58 4 -37 2 20 2 54 0 75 -2 20 -4 3 -4 -38z"/>
<path d="M1923 515 c0 -33 2 -45 4 -27 2 18 2 45 0 60 -2 15 -4 0 -4 -33z"/>
<path d="M2113 515 c0 -33 2 -45 4 -27 2 18 2 45 0 60 -2 15 -4 0 -4 -33z"/>
<path d="M2303 515 c0 -33 2 -45 4 -27 2 18 2 45 0 60 -2 15 -4 0 -4 -33z"/>
<path d="M2883 510 c0 -36 2 -50 4 -32 2 17 2 47 0 65 -2 17 -4 3 -4 -33z"/>
<path d="M10 402 c0 -4 19 -6 43 -4 70 5 76 10 15 11 -32 0 -58 -2 -58 -7z"/>
<path d="M160 248 l0 -158 125 0 125 0 0 33 0 32 -82 0 -83 0 0 30 0 30 68 -2
67 -1 0 34 0 34 -70 0 -70 0 0 30 0 30 88 0 88 0 -4 33 -4 32 -124 0 -124 0 0
-157z m73 8 c7 -19 -18 -42 -28 -26 -8 13 1 40 14 40 5 0 11 -6 14 -14z"/>
<path d="M430 403 c0 -5 22 -41 49 -82 l49 -74 -42 -66 c-23 -36 -46 -72 -50
-79 -5 -9 5 -12 41 -12 47 0 49 1 72 45 13 25 27 45 30 45 4 0 17 -20 31 -45
24 -44 26 -45 73 -45 l49 0 -18 28 c-9 15 -33 50 -51 78 l-34 51 51 76 c27 42
50 79 50 82 0 3 -20 5 -45 5 -44 0 -46 -2 -73 -50 -15 -27 -29 -50 -32 -50 -3
0 -18 23 -33 50 -27 48 -30 50 -73 50 -24 0 -44 -3 -44 -7z m170 -158 c0 -28
-4 -35 -20 -35 -16 0 -20 7 -20 35 0 28 4 35 20 35 16 0 20 -7 20 -35z"/>
<path d="M809 402 c-49 -6 -63 -34 -67 -136 -8 -168 13 -190 169 -179 l89 6 0
32 0 31 -85 -4 -86 -5 3 94 3 94 83 3 82 3 0 33 0 33 -82 -1 c-46 -1 -95 -2
-109 -4z"/>
<path d="M1040 248 l0 -158 125 0 125 0 0 33 0 32 -85 -4 -85 -3 0 37 0 38 70
-6 70 -6 0 35 0 34 -70 0 -70 0 0 30 0 30 85 0 85 0 0 33 0 32 -125 0 -125 0
0 -157z m66 -14 c-5 -13 -10 -14 -18 -6 -6 6 -8 18 -4 28 5 13 10 14 18 6 6
-6 8 -18 4 -28z"/>
<path d="M1336 402 c-2 -4 -4 -76 -4 -160 l0 -152 124 0 124 0 0 33 0 32 -80
-3 -80 -4 0 131 0 131 -39 0 c-22 0 -42 -3 -45 -8z"/>
<path d="M1620 250 l0 -160 43 0 43 0 -4 68 c-6 106 0 116 32 50 25 -54 29
-58 61 -58 32 0 37 4 64 58 l30 57 1 -87 0 -88 40 0 40 0 0 160 0 160 -43 0
-43 0 -43 -87 -43 -87 -46 87 -46 87 -43 0 -43 0 0 -160z m84 78 c21 -30 20
-54 -1 -62 -10 -3 -24 -9 -30 -12 -10 -4 -13 8 -13 45 0 57 17 68 44 29z m226
-29 c0 -37 -3 -49 -12 -45 -7 3 -21 9 -30 12 -22 8 -23 27 -2 59 27 42 44 32
44 -26z"/>
<path d="M2063 250 l-61 -160 48 0 c44 0 48 2 53 28 6 28 8 28 64 27 52 -2 58
-4 63 -26 5 -21 13 -24 53 -27 26 -2 47 -2 47 0 0 2 -27 73 -59 158 l-58 155
-45 3 -45 3 -60 -161z m127 91 c14 -27 14 -27 -24 -27 -19 0 -33 2 -32 6 2 3
6 13 9 23 8 23 34 22 47 -2z m-3 -89 c18 -51 17 -52 -23 -52 -30 0 -35 3 -29
18 4 9 12 32 17 50 11 39 17 36 35 -16z"/>
<path d="M2310 373 c0 -32 1 -33 45 -33 l45 0 0 -125 0 -125 43 0 42 0 -3 125
-4 125 51 0 c51 0 51 0 51 33 l0 32 -135 0 -135 0 0 -32z"/>
<path d="M2618 247 l-3 -157 128 0 128 0 -3 32 -3 31 -82 -2 -83 -2 0 37 0 37
65 -6 65 -6 0 34 0 35 -65 0 -65 0 0 30 0 30 85 0 85 0 0 33 0 32 -125 0 -124
0 -3 -158z m68 12 c3 -6 -1 -18 -10 -27 -15 -15 -16 -14 -16 11 0 27 13 36 26
16z"/>
</g>
</svg>
